# File created by Blade
# Date/Time:  Wed Jan 21 16:14:13 2015
# Frame Rate: 120.000 fps
#------------------------------------------------------
:FULLY-SPECIFIED
:DEGREES
536
root 18.752247 35.643514 -19.130784 -172.648039 -5.703362 -179.228550
Spine -16.720099 -1.519185 -0.457547
Head 7.940884 -4.262352 0.077183
LeftShoulder -3.369197 -36.103816 15.684989
LeftArm 14.383310 15.697649 -6.692908
LeftForeArm 15.829337 -0.000000 -1.680850
LeftHand -9.804483 -0.000000 -2.698376
LeftHandThumb1 -26.253704 0.000000 33.147579
RightShoulder -6.829663 -0.621866 -12.169010
RightArm 10.252708 34.943524 11.520020
RightForeArm -34.030793 -0.000000 2.918952
RightHand -3.842633 -0.000000 9.314969
RightHandThumb1 -24.326973 -0.000000 -32.862282
LeftUpLeg -2.535766 6.273380 0.271458
LeftLeg -3.972799 -0.000000 0.000000
LeftFoot -19.237371 24.512743 -11.152351
LeftToeBase 26.959064 -0.000000 -0.000000
RightUpLeg -2.576265 -9.702205 2.253064
RightLeg -1.631275 -0.000000 0.000000
RightFoot -21.302476 -27.985100 14.217788
RightToeBase 23.682083 -0.000000 -0.000000
537
root 18.759341 35.642896 -19.122908 -172.537468 -5.662036 -179.224993
Spine -16.794988 -1.474621 -0.461646
Head 7.819128 -4.255181 0.101701
LeftShoulder -3.381419 -36.215099 15.700479
LeftArm 14.253641 15.702803 -6.714031
LeftForeArm 15.797391 -0.000000 -1.653535
LeftHand -9.800942 0.000000 -2.799937
LeftHandThumb1 -26.253704 0.000000 33.147579
RightShoulder -6.869697 -0.489623 -11.998387
RightArm 10.363939 34.742916 11.258593
RightForeArm -34.194123 -0.000000 2.907275
RightHand -3.832537 -0.000000 9.389638
RightHandThumb1 -24.326973 -0.000000 -32.862282
LeftUpLeg -2.661254 6.289655 0.267046
LeftLeg -3.956113 -0.000000 0.000000
LeftFoot -19.264787 24.525031 -11.161638
LeftToeBase 27.153563 -0.000000 -0.000000
RightUpLeg -2.696593 -9.681634 2.285328
RightLeg -1.649698 -0.000000 0.000000
RightFoot -21.263015 -27.934869 14.245761
RightToeBase 23.540045 -0.000000 -0.000000
538
root 18.765446 35.642098 -19.118244 -172.458106 -5.631546 -179.218186
Spine -16.833225 -1.433421 -0.464790
Head 7.688114 -4.220551 0.165910
LeftShoulder -3.415422 -36.303290 15.721837
LeftArm 14.151685 15.702062 -6.730478
LeftForeArm 15.749963 -0.000000 -1.645692
LeftHand -9.828076 -0.000000 -2.879381
LeftHandThumb1 -26.253704 0.000000 33.147579
RightShoulder -6.831378 -0.348359 -11.849248
RightArm 10.256313 34.628935 10.952737
RightForeArm -34.262988 -0.000000 3.013400
RightHand -3.858410 0.000000 9.432894
RightHandThumb1 -24.326973 -0.000000 -32.862282
LeftUpLeg -2.746154 6.301814 0.266912
LeftLeg -3.965278 -0.000000 0.000000
LeftFoot -19.325859 24.551650 -11.230860
LeftToeBase 27.297456 -0.000000 -0.000000
RightUpLeg -2.774000 -9.693202 2.311350
RightLeg -1.679681 -0.000000 0.000000
RightFoot -21.215455 -27.905201 14.134981
RightToeBase 23.662668 -0.000000 -0.000000
539
root 18.771086 35.641311 -19.114237 -172.368847 -5.580744 -179.203901
Spine -16.888649 -1.354140 -0.462371
Head 7.592254 -4.170851 0.204183
LeftShoulder -3.438920 -36.384654 15.739316
LeftArm 14.030108 15.627330 -6.770715
LeftForeArm 15.791294 0.000000 -1.656928
LeftHand -9.805503 -0.000000 -2.899936
LeftHandThumb1 -26.253704 0.000000 33.147579
RightShoulder -6.851756 -0.247465 -11.703294
RightArm 10.252941 34.661025 10.721384
RightForeArm -34.360678 -0.000000 3.039791
RightHand -3.877458 -0.000000 9.358870
RightHandThumb1 -24.326973 -0.000000 -32.862282
LeftUpLeg -2.833863 6.327615 0.275018
LeftLeg -3.979665 -0.000000 0.000000
LeftFoot -19.342063 24.586960 -11.243575
LeftToeBase 27.133641 -0.000000 -0.000000
RightUpLeg -2.858859 -9.690733 2.346350
RightLeg -1.712756 -0.000000 0.000000
RightFoot -21.181762 -27.837489 14.179331
RightToeBase 23.464440 -0.000000 -0.000000
540
root 18.776644 35.640601 -19.109979 -172.255454 -5.523793 -179.195292
Spine -16.974165 -1.271544 -0.467779
Head 7.487452 -4.119664 0.272098
LeftShoulder -3.501647 -36.417033 15.775003
LeftArm 13.935204 15.494075 -6.814878
LeftForeArm 15.821419 -0.000000 -1.663764
LeftHand -9.810961 -0.000000 -2.975085
LeftHandThumb1 -26.253704 0.000000 33.147579
RightShoulder -6.867649 -0.180818 -11.587690
RightArm 10.217193 34.824708 10.546654
RightForeArm -34.485582 0.000000 3.085198
RightHand -3.876723 -0.000000 9.247622
RightHandThumb1 -24.326973 -0.000000 -32.862282
LeftUpLeg -2.949069 6.338859 0.273755
LeftLeg -3.966917 -0.000000 0.000000
LeftFoot -19.297570 24.648878 -11.162957
LeftToeBase 27.149761 -0.000000 -0.000000
RightUpLeg -2.978910 -9.690184 2.379188
RightLeg -1.737561 -0.000000 0.000000
RightFoot -21.135013 -27.804661 14.044955
RightToeBase 23.745208 -0.000000 -0.000000
541
root 18.783120 35.640085 -19.108756 -172.178090 -5.471503 -179.172947
Spine -17.029449 -1.186024 -0.456193
Head 7.425520 -4.093994 0.305136
LeftShoulder -3.547806 -36.462395 15.800708
LeftArm 13.808089 15.379737 -6.858399
LeftForeArm 15.902757 -0.000000 -1.651883
LeftHand -9.818089 -0.000000 -3.047289
LeftHandThumb1 -26.253704 0.000000 33.147579
RightShoulder -6.905885 -0.057091 -11.488244
RightArm 10.236716 35.111697 10.431771
RightForeArm -34.691016 -0.000000 3.036241
RightHand -3.837782 -0.000000 9.102414
RightHandThumb1 -24.326973 -0.000000 -32.862282
LeftUpLeg -3.017343 6.359520 0.291090
LeftLeg -3.982412 -0.000000 0.000000
LeftFoot -19.325375 24.692612 -11.183458
LeftToeBase 27.195336 -0.000000 -0.000000
RightUpLeg -3.057767 -9.721788 2.422131
RightLeg -1.755238 -0.000000 0.000000
RightFoot -21.105241 -27.726557 14.047367
RightToeBase 23.688892 -0.000000 -0.000000
542
root 18.788635 35.640401 -19.105361 -172.043808 -5.409102 -179.150090
Spine -17.164758 -1.068514 -0.439962
Head 7.395004 -4.089600 0.309947
LeftShoulder -3.582016 -36.477435 15.813824
LeftArm 13.699357 15.340196 -6.888624
LeftForeArm 15.838306 0.000000 -1.696385
LeftHand -9.781442 -0.000000 -3.112498
LeftHandThumb1 -26.253704 0.000000 33.147579
RightShoulder -6.942543 0.024265 -11.406151
RightArm 10.198509 35.423271 10.291257
RightForeArm -34.758691 0.000000 2.977808
RightHand -3.731745 -0.000000 8.989067
RightHandThumb1 -24.326973 -0.000000 -32.862282
LeftUpLeg -3.153897 6.396191 0.298804
LeftLeg -3.985009 -0.000000 0.000000
LeftFoot -19.411420 24.696631 -11.281348
LeftToeBase 27.311584 -0.000000 -0.000000
RightUpLeg -3.206836 -9.738262 2.473709
RightLeg -1.760714 -0.000000 0.000000
RightFoot -21.062418 -27.614825 14.025205
RightToeBase 23.690876 -0.000000 -0.000000
543
root 18.794128 35.640434 -19.107007 -171.956190 -5.346559 -179.120528
Spine -17.257874 -0.950425 -0.414008
Head 7.375615 -4.046904 0.322078
LeftShoulder -3.607434 -36.517684 15.814897
LeftArm 13.555600 15.272880 -6.920857
LeftForeArm 15.802256 -0.000000 -1.687291
LeftHand -9.770323 -0.000000 -3.229801
LeftHandThumb1 -26.253704 0.000000 33.147579
RightShoulder -6.967837 0.149316 -11.353174
RightArm 10.116480 35.735103 10.163190
RightForeArm -34.788054 -0.000000 2.938599
RightHand -3.635619 0.000000 8.939062
RightHandThumb1 -24.326973 -0.000000 -32.862282
LeftUpLeg -3.228252 6.425585 0.320113
LeftLeg -3.992276 -0.000000 0.000000
LeftFoot -19.378127 24.763589 -11.216279
LeftToeBase 27.219563 -0.000000 -0.000000
RightUpLeg -3.295743 -9.769629 2.523663
RightLeg -1.771367 -0.000000 0.000000
RightFoot -21.046216 -27.493510 14.129354
RightToeBase 23.525114 -0.000000 -0.000000
544
root 18.797359 35.640151 -19.111482 -171.892071 -5.294636 -179.112108
Spine -17.322751 -0.851675 -0.405169
Head 7.371529 -3.987837 0.320153
LeftShoulder -3.666685 -36.573998 15.825243
LeftArm 13.440128 15.241414 -6.940695
LeftForeArm 15.692708 0.000000 -1.714881
LeftHand -9.834295 -0.000000 -3.261095
LeftHandThumb1 -26.253704 0.000000 33.147579
RightShoulder -6.992219 0.242574 -11.315995
RightArm 10.014914 36.065787 10.057373
RightForeArm -34.667251 0.000000 2.928049
RightHand -3.609169 -0.000000 8.994217
RightHandThumb1 -24.326973 -0.000000 -32.862282
LeftUpLeg -3.265553 6.452702 0.322182
LeftLeg -4.024959 -0.000000 0.000000
LeftFoot -19.359795 24.820682 -11.190787
LeftToeBase 26.971148 -0.000000 -0.000000
RightUpLeg -3.417930 -10.022792 2.564523
RightLeg -1.674261 -0.000000 0.000000
RightFoot -21.032221 -27.212010 13.994075
RightToeBase 23.765371 -0.000000 -0.000000
545
root 18.801532 35.641205 -19.112863 -171.776758 -5.247521 -179.097779
Spine -17.444860 -0.757338 -0.391796
Head 7.354527 -3.938779 0.335267
LeftShoulder -3.759021 -36.645813 15.849210
LeftArm 13.336441 15.183132 -6.952231
LeftForeArm 15.633659 -0.000000 -1.717465
LeftHand -9.806246 -0.000000 -3.457495
LeftHandThumb1 -26.253704 0.000000 33.147579
RightShoulder -7.045538 0.304959 -11.310022
RightArm 9.949082 36.468956 10.051762
RightForeArm -34.642504 -0.000000 2.924751
RightHand -3.618265 -0.000000 8.895706
RightHandThumb1 -24.326973 -0.000000 -32.862282
LeftUpLeg -3.376259 6.469119 0.323804
LeftLeg -4.018959 -0.000000 0.000000
LeftFoot -19.392515 24.843490 -11.227988
LeftToeBase 27.171658 -0.000000 -0.000000
RightUpLeg -3.541163 -10.082311 2.603807
RightLeg -1.670880 -0.000000 0.000000
RightFoot -20.965778 -27.098005 13.973461
RightToeBase 23.680185 -0.000000 -0.000000
546
root 18.805637 35.642716 -19.115654 -171.642589 -5.218274 -179.075929
Spine -17.601293 -0.670309 -0.366352
Head 7.383684 -3.915324 0.303816
LeftShoulder -3.869213 -36.705087 15.847090
LeftArm 13.308376 15.171887 -6.922716
LeftForeArm 15.524012 -0.000000 -1.788331
LeftHand -9.793314 0.000000 -3.534140
LeftHandThumb1 -26.253704 0.000000 33.147579
RightShoulder -7.135697 0.271120 -11.313914
RightArm 9.941682 36.916118 10.086347
RightForeArm -34.586768 -0.000000 2.905152
RightHand -3.639303 -0.000000 8.892975
RightHandThumb1 -24.326973 -0.000000 -32.862282
LeftUpLeg -3.508225 6.460953 0.334350
LeftLeg -4.010192 -0.000000 0.000000
LeftFoot -19.418434 24.887200 -11.239991
LeftToeBase 27.198045 -0.000000 -0.000000
RightUpLeg -3.662013 -10.126210 2.655232
RightLeg -1.709190 -0.000000 0.000000
RightFoot -20.974210 -26.996580 14.144374
RightToeBase 23.554927 -0.000000 -0.000000
547
root 18.808382 35.644244 -19.119198 -171.515191 -5.170499 -179.059020
Spine -17.747597 -0.572484 -0.347218
Head 7.350043 -3.876912 0.325845
LeftShoulder -4.006642 -36.769851 15.857547
LeftArm 13.252864 15.082778 -6.914659
LeftForeArm 15.530769 -0.000000 -1.765716
LeftHand -9.833306 -0.000000 -3.624578
LeftHandThumb1 -26.253704 0.000000 33.147579
RightShoulder -7.228604 0.246843 -11.318436
RightArm 9.948125 37.315782 10.119004
RightForeArm -34.478544 -0.000000 2.831082
RightHand -3.633151 -0.000000 8.881199
RightHandThumb1 -24.326973 -0.000000 -32.862282
LeftUpLeg -3.626581 6.476608 0.335613
LeftLeg -4.010149 -0.000000 0.000000
LeftFoot -19.412057 24.944154 -11.228866
LeftToeBase 27.190243 -0.000000 -0.000000
RightUpLeg -3.775295 -10.126862 2.689375
RightLeg -1.738465 -0.000000 0.000000
RightFoot -20.910023 -26.884613 14.235126
RightToeBase 23.388650 -0.000000 -0.000000
